<?xml version="1.0" standalone="no"?>
<!DOCTYPE svg PUBLIC "-//W3C//DTD SVG 20010904//EN"
 "http://www.w3.org/TR/2001/REC-SVG-20010904/DTD/svg10.dtd">
<svg version="1.0" xmlns="http://www.w3.org/2000/svg"
 width="430.000000pt" height="80.000000pt" viewBox="0 0 1430.000000 520.000000"
 preserveAspectRatio="xMidYMid meet">

<g transform="translate(0.000000,520.000000) scale(0.100000,-0.100000)"
fill="#fff" stroke="none">
<path d="M11485 5190 c3 -5 8 -10 11 -10 2 0 4 5 4 10 0 6 -5 10 -11 10 -5 0
-7 -4 -4 -10z"/>
<path d="M1396 4718 c17 -48 12 -83 -15 -113 -27 -29 -32 -61 -41 -250 -10
-198 -22 -264 -57 -306 -27 -31 -23 -44 12 -51 41 -7 58 -103 25 -143 -19 -22
-50 -19 -50 5 0 29 -28 36 -179 44 -74 4 -168 14 -210 23 -119 25 -168 27
-186 9 -13 -13 -35 -14 -128 -10 -63 3 -118 1 -126 -4 -7 -5 -17 -31 -22 -58
-6 -36 -17 -56 -39 -75 -16 -14 -30 -33 -30 -42 0 -24 77 -105 120 -127 38
-19 226 -37 246 -23 6 5 17 19 24 32 12 23 15 24 94 17 44 -4 169 -13 276 -21
107 -7 203 -16 213 -20 9 -4 19 -17 22 -29 14 -65 37 -261 55 -486 12 -140 28
-301 36 -357 8 -57 15 -120 14 -140 -2 -180 63 -272 190 -273 100 0 120 35
120 208 0 130 -17 380 -32 452 -5 30 -23 84 -40 120 -25 57 -28 72 -23 125 5
42 2 70 -8 95 -17 41 -32 226 -19 233 4 3 26 2 47 -3 26 -6 44 -5 52 2 18 15
181 4 249 -17 84 -25 98 -52 120 -227 17 -135 34 -192 71 -230 l26 -27 -36 6
-37 6 0 -62 c0 -34 5 -71 11 -82 16 -31 45 -148 80 -329 30 -158 54 -229 81
-247 24 -15 172 -20 186 -6 7 7 22 13 33 13 33 0 81 30 75 46 -3 9 3 16 19 20
14 3 33 18 43 33 46 67 93 250 71 277 -7 8 -9 26 -5 46 15 71 18 121 8 127 -8
5 -8 28 -1 76 11 76 5 149 -17 201 -8 18 -14 56 -14 84 0 28 -4 49 -8 46 -5
-3 -8 25 -8 62 1 61 -3 73 -39 135 -22 38 -44 77 -50 88 -5 10 -18 19 -28 19
-24 0 -97 23 -97 31 0 4 -9 5 -19 2 -41 -11 -62 54 -86 274 -19 169 -47 285
-81 336 l-25 38 32 -16 c49 -26 54 -12 39 109 -15 121 -11 141 25 132 23 -6
24 -5 13 19 -12 26 -47 41 -72 32 -8 -3 -29 1 -47 10 -41 21 -168 19 -209 -2
-51 -26 -37 -75 21 -75 23 0 24 -8 3 -31 -25 -27 -43 -89 -44 -146 0 -50 1
-53 25 -53 22 0 25 -4 25 -34 0 -44 -15 -85 -42 -113 l-21 -22 24 -20 c22 -18
24 -26 24 -108 -1 -99 -11 -191 -25 -213 -7 -12 -12 -12 -28 3 -28 26 -74 37
-194 47 -129 11 -187 25 -194 48 -3 9 -14 40 -25 69 l-20 51 20 41 c12 22 25
42 31 46 15 9 12 71 -4 84 -24 20 -37 105 -51 351 -8 129 -15 239 -15 243 0 5
-20 5 -44 2 -28 -5 -46 -3 -50 4 -4 6 -22 11 -41 11 l-34 0 15 -42z m804 -768
c12 -7 10 -11 -10 -18 -14 -5 -31 -8 -37 -6 -47 14 -48 15 -33 24 19 12 61 12
80 0z m90 -129 c0 -15 -37 -23 -70 -16 -47 10 -35 25 20 25 28 0 50 -4 50 -9z
m166 -501 c6 0 16 -39 23 -92 6 -51 19 -116 27 -144 17 -54 15 -116 -7 -216
-10 -45 -17 -58 -35 -62 -54 -14 -67 11 -53 104 14 91 14 93 -4 209 -18 111
-22 193 -10 205 4 4 17 5 28 2 11 -3 25 -6 31 -6z"/>
<path d="M5112 4664 c-15 -10 -22 -26 -22 -47 l-1 -32 -34 40 c-18 22 -35 37
-37 35 -2 -3 -9 -17 -16 -32 -7 -17 -22 -30 -39 -33 -48 -11 -73 -24 -79 -42
-19 -59 -34 -83 -88 -140 -33 -36 -73 -71 -89 -79 -27 -14 -29 -14 -34 5 -8
31 -17 26 -42 -26 -20 -42 -24 -45 -33 -29 -6 10 -8 41 -5 68 6 44 2 59 -29
119 -40 80 -77 109 -141 109 -50 0 -94 -32 -124 -92 -22 -43 -19 -68 6 -68 13
0 16 -8 13 -37 -3 -32 0 -38 20 -42 33 -8 31 -23 -5 -46 -36 -23 -41 -45 -15
-71 14 -15 17 -36 16 -143 -1 -228 -50 -399 -137 -483 -50 -48 -50 -48 -49
-110 1 -35 -6 -117 -14 -183 -17 -125 -14 -330 6 -517 12 -105 17 -120 39
-113 23 7 50 -25 95 -112 53 -100 58 -104 176 -115 90 -9 103 -8 132 9 63 36
72 73 78 304 4 179 7 210 23 226 23 26 22 66 -4 133 -25 63 -31 224 -11 273
19 44 15 168 -5 208 -13 25 -18 56 -17 114 1 100 27 171 89 244 50 59 55 78
23 90 -19 7 -15 12 42 42 46 24 66 42 76 65 17 39 27 47 79 54 36 4 40 8 40
32 1 37 64 101 127 128 79 34 201 46 331 33 132 -14 145 -18 149 -46 2 -14 17
-28 43 -40 77 -35 90 -44 88 -61 -1 -23 47 -52 111 -67 28 -6 62 -18 75 -26
l24 -16 -23 -17 c-36 -27 -19 -46 59 -70 39 -11 73 -25 77 -31 4 -6 -6 -22
-22 -34 l-29 -23 25 -10 c34 -13 50 -34 75 -96 17 -42 25 -52 48 -54 20 -2 31
-12 38 -30 15 -37 3 -145 -23 -203 -24 -56 -19 -79 17 -79 14 0 25 -2 25 -5 0
-3 -16 -21 -35 -40 -19 -19 -42 -58 -52 -86 -30 -86 -76 -119 -168 -119 -38 0
-59 -21 -50 -50 4 -14 1 -22 -11 -27 -20 -7 -54 29 -54 58 0 27 -13 23 -39
-12 -41 -55 -99 -74 -231 -74 -127 1 -161 10 -222 64 -44 38 -71 40 -87 5 -10
-22 -16 -25 -41 -20 -42 8 -50 -14 -50 -133 0 -112 9 -146 48 -177 l26 -21
-27 -60 c-32 -73 -35 -118 -7 -133 17 -9 19 -20 17 -118 -1 -96 1 -113 26
-169 29 -68 28 -85 -9 -101 -13 -7 -24 -17 -24 -23 0 -6 14 -43 32 -82 17 -40
32 -88 32 -107 2 -33 4 -36 51 -48 54 -13 306 -19 342 -8 14 4 23 17 25 34 2
20 15 33 58 57 48 27 55 35 56 62 2 69 31 83 77 36 41 -44 60 -98 52 -154 -6
-44 -5 -49 12 -49 27 0 43 -19 43 -51 0 -32 34 -60 95 -78 71 -22 71 -24 7
-31 -77 -9 -85 -15 -72 -60 6 -19 17 -91 26 -159 15 -123 25 -161 44 -161 16
0 11 -53 -6 -79 -14 -19 -22 -22 -51 -16 -32 6 -34 5 -23 -14 19 -36 48 -44
133 -38 l80 7 -50 -26 c-33 -16 -55 -35 -62 -52 -7 -17 -10 -88 -8 -188 l2
-161 -28 -40 c-21 -30 -26 -47 -22 -66 6 -22 3 -27 -19 -33 -17 -4 -35 0 -52
11 -21 13 -25 23 -22 53 2 31 9 40 35 52 18 8 31 20 29 25 -6 20 -46 15 -86
-11 l-41 -27 -23 22 c-52 49 -96 194 -96 316 0 92 10 134 44 184 31 48 39 83
26 130 -12 46 -6 67 21 74 36 10 19 107 -19 107 -10 0 -38 -15 -62 -32 l-45
-33 24 33 c30 43 98 92 126 92 13 0 33 9 46 20 l24 20 -24 20 c-18 16 -38 20
-92 20 -71 0 -86 -8 -81 -45 4 -32 -23 -99 -66 -162 -51 -75 -82 -137 -82
-163 0 -13 -13 -28 -35 -41 -35 -21 -39 -29 -50 -107 -7 -52 12 -353 26 -404
5 -21 27 -58 49 -83 22 -25 42 -58 46 -73 12 -57 23 -71 64 -82 46 -12 57 -28
40 -60 -11 -20 -10 -21 12 -14 33 11 61 7 73 -9 19 -26 53 -37 97 -31 40 6 45
4 56 -21 12 -25 15 -26 62 -20 41 6 51 4 55 -9 3 -9 7 -23 10 -32 4 -12 13 -7
40 21 31 34 38 37 71 30 40 -7 39 -11 22 66 -2 10 5 13 27 10 79 -9 80 -8 80
27 1 38 19 54 52 45 38 -9 27 21 -22 61 -25 21 -45 40 -45 44 0 4 10 12 22 17
12 6 25 23 29 40 12 47 30 446 23 483 -8 41 -37 62 -86 62 -45 0 -49 14 -9 35
97 50 76 143 -47 208 -51 28 -61 36 -42 37 14 0 36 7 48 16 18 13 22 25 22 73
0 77 -26 201 -57 276 -30 72 -28 143 6 178 28 31 26 39 -11 57 -25 12 -34 24
-42 59 -7 26 -19 49 -31 55 -31 17 -34 26 -28 78 5 40 3 48 -10 48 -24 0 -37
32 -37 95 0 68 -10 88 -50 105 -35 15 -38 32 -8 52 41 27 13 38 -100 37 -59 0
-115 -4 -126 -8 -15 -6 -19 -20 -21 -81 -8 -174 -126 -368 -244 -400 -60 -16
-84 -6 -76 31 9 42 -3 72 -26 66 -24 -6 -24 -2 1 33 15 21 20 47 22 110 1 45
6 84 10 86 4 3 8 19 8 35 0 18 -4 28 -10 24 -16 -10 -40 15 -40 41 0 15 16 39
41 64 47 46 58 46 34 1 -8 -17 -12 -31 -8 -31 3 0 29 16 57 35 59 40 154 64
256 65 78 1 132 23 198 81 52 46 98 69 137 69 41 0 101 36 161 98 63 63 110
129 101 139 -4 3 -24 9 -44 13 l-38 6 32 17 c56 30 58 40 58 292 0 217 -1 232
-22 271 -12 22 -38 53 -57 68 -44 33 -45 46 -5 46 18 0 29 5 27 11 -6 17 -89
59 -115 59 -22 0 -23 4 -23 70 0 61 -3 74 -24 95 -13 13 -41 28 -63 34 -70 19
-78 31 -75 105 2 62 1 66 -25 80 -16 7 -68 21 -118 31 -93 17 -175 47 -175 63
0 5 7 15 15 22 29 24 18 47 -29 59 -24 6 -49 17 -56 26 -18 21 -50 19 -76 -6
l-23 -22 -30 25 c-35 30 -85 44 -207 58 -131 15 -215 13 -242 -6z m1251 -1179
c-3 -13 -39 -18 -71 -10 -21 5 -23 8 -11 16 18 12 85 7 82 -6z"/>
<path d="M8583 4543 c-29 -32 -36 -35 -68 -29 -72 14 -135 -58 -135 -152 l0
-51 -37 -3 c-33 -3 -42 -10 -69 -51 -49 -75 -81 -186 -89 -311 -5 -82 -3 -111
6 -117 9 -5 8 -14 -7 -36 -16 -23 -19 -44 -18 -123 1 -92 54 -461 94 -660 17
-84 18 -97 5 -117 -22 -33 -18 -50 12 -58 45 -11 54 -23 47 -66 -6 -34 -3 -42
25 -68 24 -22 31 -38 31 -66 0 -53 16 -78 46 -71 29 8 30 2 4 -31 -29 -37 -27
-61 5 -56 26 5 27 3 40 -78 11 -72 126 -281 212 -386 69 -84 124 -99 246 -67
79 20 184 72 208 102 12 16 17 33 13 48 -5 19 -1 24 21 30 27 7 27 9 22 60 -5
52 -5 54 19 54 17 0 24 5 24 20 0 11 -4 20 -8 20 -19 0 -43 61 -36 95 5 31 3
36 -20 45 -23 8 -26 15 -27 62 -1 29 -1 70 0 90 3 42 -17 58 -71 58 -46 0 -63
18 -41 42 9 10 24 18 35 18 26 0 23 38 -6 91 -52 93 -57 201 -10 219 30 12 30
18 -1 61 -19 24 -25 44 -23 69 3 32 0 35 -24 38 -38 4 -35 17 10 46 57 36 67
69 49 153 -22 94 -47 283 -47 347 0 35 5 58 15 66 18 15 20 51 3 68 -7 7 -13
26 -14 43 -1 16 -17 56 -36 87 -45 74 -50 88 -32 102 8 8 14 30 14 57 0 37 -5
48 -35 74 -23 20 -37 43 -41 67 -9 51 -29 86 -58 106 -19 12 -32 37 -48 91
-19 65 -25 76 -52 85 -20 7 -33 7 -40 0 -15 -15 -46 -12 -46 5 0 26 -34 15
-67 -22z m92 -327 c58 -76 103 -235 134 -471 33 -248 36 -318 17 -337 -22 -23
-20 -63 6 -117 13 -27 24 -72 26 -107 4 -56 2 -63 -27 -96 -34 -39 -32 -48 11
-48 35 0 35 -7 -2 -56 -34 -45 -38 -64 -11 -64 10 0 24 -6 30 -14 10 -12 8
-19 -8 -35 -11 -11 -31 -23 -43 -25 -13 -2 -43 -8 -68 -13 -38 -7 -45 -12 -44
-32 2 -53 -97 -67 -131 -18 -28 40 -12 120 27 132 27 9 22 25 -22 70 -57 58
-75 120 -111 381 -28 206 -31 247 -26 409 3 146 8 192 25 244 23 71 55 111 88
111 28 0 47 24 40 48 -4 11 -2 31 3 46 15 38 53 35 86 -8z m155 -1651 c28 -34
-29 -78 -75 -57 -55 25 -38 72 25 72 21 0 43 -7 50 -15z m1 -126 c50 -17 99
-57 99 -81 0 -26 -58 -148 -70 -148 -5 0 -12 11 -16 24 -3 13 -27 44 -54 69
-51 48 -69 92 -50 126 12 24 41 27 91 10z"/>
<path d="M6904 3060 c-17 -17 -111 -37 -207 -45 -113 -8 -205 -36 -240 -73
-17 -17 -30 -46 -36 -77 -9 -48 -30 -75 -59 -75 -10 0 -12 -8 -7 -30 5 -23 0
-41 -19 -74 -14 -24 -22 -46 -19 -50 3 -3 22 -6 42 -6 61 0 67 -13 22 -45 -45
-30 -45 -45 0 -45 36 0 37 -10 3 -41 -38 -35 -64 -96 -64 -154 0 -41 7 -61 35
-105 27 -43 35 -65 35 -102 0 -45 2 -48 33 -56 27 -7 34 -15 42 -48 6 -26 26
-56 60 -90 65 -65 123 -96 175 -92 22 1 45 -3 52 -10 17 -17 36 -15 64 7 14
11 42 22 64 26 33 6 40 11 40 29 0 12 -5 27 -11 33 -17 17 54 28 110 17 50
-10 53 -17 35 -88 -6 -26 -5 -28 15 -21 31 10 41 -27 41 -153 0 -212 60 -457
120 -495 25 -15 25 -27 0 -27 -38 0 -41 -29 -38 -303 1 -144 -1 -272 -5 -285
-10 -28 -33 -23 -92 20 -22 16 -64 47 -94 68 -30 22 -63 40 -73 40 -20 0 -21
3 -22 69 -1 40 -4 45 -30 52 -36 10 -46 24 -46 67 0 45 25 90 55 98 35 9 31
22 -21 70 -48 44 -49 59 -8 74 31 12 31 41 -2 97 -35 60 -30 77 26 83 l45 5 3
57 c3 49 6 57 24 60 31 4 40 47 33 160 -7 111 -24 182 -46 186 -50 9 -123
-115 -123 -212 l-1 -61 -40 -3 c-90 -6 -104 -20 -65 -69 11 -14 20 -35 20 -47
0 -11 -22 -66 -50 -121 -78 -155 -126 -379 -86 -402 10 -6 16 -29 18 -73 l3
-65 42 3 43 3 -6 -45 c-6 -39 -3 -52 18 -84 26 -38 192 -204 303 -303 76 -67
95 -95 95 -141 0 -21 5 -38 10 -38 22 0 78 29 98 50 21 23 42 20 42 -6 0 -32
44 -10 114 57 97 92 126 148 126 243 0 91 -24 203 -51 239 -11 16 -19 29 -17
30 54 28 62 60 54 222 -6 133 -25 247 -57 343 -13 40 -19 77 -16 98 5 32 2 37
-49 76 -30 24 -54 46 -54 50 0 5 17 8 38 8 51 0 71 14 54 37 -33 48 -44 80
-34 99 9 16 6 23 -15 40 -23 18 -27 31 -35 120 -18 188 -36 329 -47 357 -6 16
-18 27 -30 27 -17 0 -19 6 -14 59 5 50 2 63 -17 89 -20 27 -22 37 -16 94 l8
63 -25 -23 c-41 -38 -134 -55 -179 -31 -17 9 -19 17 -13 56 5 35 4 44 -7 41
-25 -8 -38 -53 -38 -133 -1 -94 -21 -149 -78 -208 -68 -71 -141 -94 -201 -62
-50 25 -61 103 -42 303 9 96 18 111 57 93 36 -16 42 -6 15 23 -14 15 -25 42
-28 69 -5 39 -2 46 22 65 61 48 150 40 204 -18 20 -22 49 -44 64 -49 34 -13
144 -15 151 -2 3 4 -3 25 -14 46 -15 30 -18 50 -14 90 6 50 5 54 -32 96 -21
24 -45 52 -52 61 -8 10 -22 41 -32 70 -17 53 -36 68 -56 48z"/>
<path d="M10953 3040 c-18 -9 -67 -20 -109 -24 -43 -4 -86 -12 -96 -17 -17 -9
-17 -11 1 -47 10 -20 24 -55 31 -77 7 -22 19 -47 27 -56 11 -14 12 -18 1 -22
-10 -4 -9 -9 5 -20 9 -8 17 -21 17 -30 0 -13 7 -15 30 -10 27 5 30 3 30 -19 0
-30 -35 -84 -71 -110 -38 -29 -96 -32 -144 -9 l-40 19 45 1 c73 2 79 12 32 59
-27 27 -46 58 -56 93 -20 65 -20 74 -1 93 14 13 13 20 -7 60 -12 25 -28 46
-35 46 -7 0 -13 5 -13 10 0 19 -35 9 -74 -20 -45 -34 -61 -38 -45 -11 7 10 9
26 6 35 -8 21 -70 22 -91 1 -24 -24 -31 -97 -12 -133 9 -17 16 -49 16 -72 0
-22 3 -39 8 -39 34 6 46 -26 56 -146 12 -130 16 -145 53 -181 29 -29 34 -40
28 -62 -18 -71 -17 -113 3 -135 11 -12 27 -48 37 -81 9 -32 36 -112 61 -178
24 -65 44 -127 44 -138 0 -10 -10 -26 -22 -35 -22 -16 -18 -16 78 -13 74 3
108 8 127 21 14 9 35 17 46 17 13 0 21 9 25 33 7 39 -16 170 -44 253 -11 31
-19 77 -18 101 1 38 4 43 25 43 16 0 23 -6 23 -20 0 -16 7 -20 36 -20 l37 0
-6 -60 c-6 -49 -4 -60 8 -60 11 0 15 -11 15 -36 0 -21 6 -42 15 -48 10 -7 18
-36 22 -78 6 -72 5 -71 76 -84 20 -3 48 -15 61 -25 21 -16 28 -17 51 -7 25 11
26 14 19 64 -6 55 6 94 31 94 8 0 18 12 21 26 9 35 -2 164 -16 178 -5 5 -10
31 -10 57 0 30 -6 51 -16 59 -22 19 -13 60 17 83 24 17 30 18 55 6 20 -10 30
-23 32 -42 4 -32 15 -34 49 -7 14 11 40 22 58 26 31 5 412 -26 555 -46 36 -5
178 -10 315 -10 138 0 267 -5 289 -9 21 -5 148 -7 282 -4 233 6 244 7 244 26
0 62 -78 124 -177 139 -131 20 -124 14 -73 60 37 33 41 39 20 33 -76 -19 -105
-18 -137 9 -40 34 -44 33 -32 -6 18 -64 14 -69 -38 -62 -41 5 -54 2 -86 -20
-49 -34 -58 -33 -45 4 5 17 7 42 4 55 -6 22 -12 25 -52 25 -29 0 -71 -11 -114
-30 -81 -36 -80 -35 -80 -10 0 31 -53 38 -325 46 -271 8 -300 4 -355 -43 l-30
-25 0 26 c0 28 -54 96 -76 96 -8 0 -23 -9 -34 -20 -16 -16 -33 -20 -95 -20
-93 0 -125 13 -125 51 0 35 -23 44 -110 44 l-65 0 3 62 c3 57 1 65 -24 88 -26
24 -26 25 -5 25 38 0 23 36 -51 117 -21 24 -38 52 -38 64 0 19 -26 50 -40 47
-3 0 -19 -8 -37 -18z m2087 -679 c0 -23 -58 -27 -86 -6 -17 13 -15 14 34 15
28 0 52 -4 52 -9z"/>
<path d="M7745 2982 c-11 -1 -28 -16 -37 -33 -23 -39 -54 -36 -51 4 2 35 -25
36 -57 2 -18 -19 -31 -24 -50 -20 -29 6 -83 -23 -100 -54 -9 -17 -6 -25 20
-48 28 -24 29 -28 13 -34 -10 -4 -32 -8 -49 -8 -37 -1 -45 -16 -37 -66 4 -26
1 -39 -10 -48 -9 -7 -17 -37 -21 -77 -3 -36 -8 -77 -12 -93 -5 -23 0 -33 34
-65 36 -33 69 -102 55 -115 -11 -12 19 -121 52 -191 29 -60 36 -85 33 -121 -3
-46 -2 -47 35 -60 20 -7 58 -30 83 -50 87 -72 164 -57 287 55 62 58 108 85
121 73 11 -12 6 -44 -14 -83 -28 -54 -26 -63 10 -55 26 6 31 3 39 -18 10 -26
55 -47 100 -47 25 0 24 -2 -16 -36 -24 -20 -43 -43 -43 -51 0 -9 11 -35 24
-57 32 -56 53 -126 65 -217 8 -59 22 -98 60 -175 30 -59 60 -138 74 -194 31
-122 51 -162 80 -158 16 2 23 -4 30 -27 26 -87 96 -159 186 -190 86 -29 231
-11 231 29 0 23 -33 36 -105 43 -68 6 -83 16 -40 27 38 10 51 46 31 85 -12 22
-24 31 -41 31 -25 0 -25 0 -23 86 3 90 2 94 -46 109 -17 5 -18 13 -12 95 6 77
4 90 -8 90 -9 0 -25 18 -36 39 -11 22 -33 48 -50 58 -42 24 -46 47 -16 84 14
17 26 36 26 43 0 17 -27 54 -92 124 -62 67 -74 93 -65 148 7 41 0 64 -18 64
-15 0 -20 13 -30 72 -9 48 10 106 36 110 18 3 18 6 -11 66 -16 34 -35 81 -41
103 l-13 41 -54 -7 c-52 -6 -53 -6 -43 14 16 30 13 49 -9 56 -27 9 -25 19 6
34 30 13 29 44 -1 49 -31 6 -39 19 -37 57 2 30 -1 37 -25 46 -29 11 -200 16
-210 6 -3 -3 2 -13 11 -22 23 -23 20 -58 -9 -114 -25 -50 -125 -181 -163 -215
l-22 -19 0 55 c0 48 -5 61 -37 103 -32 40 -38 55 -37 94 1 34 -4 49 -20 62
-17 14 -21 31 -24 92 -7 131 17 167 111 167 62 0 87 -21 87 -74 0 -61 14 -69
108 -64 58 3 89 11 122 29 51 28 55 42 14 49 -26 5 -29 9 -26 39 3 23 -5 45
-23 73 -19 29 -23 43 -16 52 9 10 -4 27 -51 70 -34 31 -66 56 -70 56 -5 0 -20
-7 -34 -17 -24 -15 -25 -15 -30 4 -6 20 -62 41 -99 35z"/>
<path d="M9312 2890 c-38 -17 -41 -21 -33 -42 26 -65 40 -148 51 -293 6 -88
21 -214 33 -280 l22 -120 48 -24 c92 -45 334 -38 409 13 21 14 35 33 39 55 11
53 26 61 55 28 29 -34 52 -111 59 -197 4 -56 10 -73 45 -123 28 -39 39 -64 35
-77 -3 -10 1 -43 9 -72 8 -29 27 -93 41 -143 14 -49 23 -102 21 -116 -6 -33
10 -39 105 -39 95 0 108 13 120 120 6 47 7 100 4 119 -6 30 -9 33 -34 28 l-28
-6 5 49 c3 37 -1 63 -17 99 -25 59 -26 84 -6 101 23 19 18 67 -10 104 -26 34
-49 112 -61 206 -4 34 -23 88 -49 140 -42 85 -78 183 -90 250 -16 85 -52 170
-72 170 -8 0 -30 16 -49 36 -30 33 -38 36 -73 31 -57 -7 -85 -31 -124 -105
-20 -37 -47 -78 -61 -91 -31 -29 -32 -37 -6 -44 44 -11 50 -107 14 -221 -10
-31 -27 -66 -38 -77 -19 -21 -20 -21 -33 -3 -9 12 -13 49 -13 111 l0 94 -35
15 c-36 14 -36 15 -29 64 6 47 5 50 -20 60 -29 11 -29 10 -30 96 -1 86 -19
104 -100 104 -38 0 -77 -8 -104 -20z"/>
<path d="M3168 2735 c-40 -22 -80 -107 -86 -181 -4 -54 -2 -63 19 -83 49 -46
174 -53 227 -14 45 34 74 84 68 118 -13 66 -106 159 -171 170 -17 3 -42 -1
-57 -10z"/>
<path d="M13284 2456 c-49 -49 -54 -67 -21 -81 16 -7 22 -19 23 -43 1 -18 4
-35 7 -38 21 -22 210 -31 282 -14 49 11 65 32 65 83 0 38 1 39 28 33 33 -8 70
-34 95 -68 15 -21 17 -30 8 -47 -10 -17 -9 -21 3 -21 44 0 63 113 27 149 -11
11 -38 25 -60 32 -60 18 -110 0 -136 -47 -38 -70 -87 -71 -93 -3 -5 47 -18 60
-48 49 -21 -8 -30 -5 -60 25 -19 19 -44 35 -56 35 -11 0 -40 -20 -64 -44z"/>
<path d="M13660 2279 c-30 -71 -31 -103 -3 -107 26 -4 38 16 46 80 12 89 -10
103 -43 27z"/>
</g>
</svg>
